<svg width="10" height="10" viewBox="0 0 10 10" fill="none" xmlns="http://www.w3.org/2000/svg">
<path d="M9.97393 3.83595C9.90847 3.63346 9.72887 3.48965 9.51639 3.4705L6.63011 3.20842L5.4888 0.537072C5.40465 0.341297 5.21299 0.214569 5.00005 0.214569C4.78711 0.214569 4.59545 0.341297 4.5113 0.53753L3.36999 3.20842L0.483257 3.4705C0.271154 3.4901 0.0920116 3.63346 0.0261682 3.83595C-0.0396751 4.03844 0.0211327 4.26054 0.181583 4.40054L2.36326 6.31389L1.71994 9.14775C1.67286 9.35612 1.75374 9.5715 1.92662 9.69647C2.01955 9.76361 2.12827 9.79779 2.23791 9.79779C2.33244 9.79779 2.42621 9.77231 2.51036 9.72195L5.00005 8.23396L7.48882 9.72195C7.67094 9.83152 7.90052 9.82152 8.07302 9.69647C8.24598 9.57112 8.32678 9.35566 8.27971 9.14775L7.63638 6.31389L9.81806 4.40093C9.97851 4.26054 10.0398 4.03882 9.97393 3.83595Z" fill="#FFC107"/>
</svg>
